<?xml version="1.0" standalone="no"?>
<!DOCTYPE svg PUBLIC "-//W3C//DTD SVG 20010904//EN"
 "http://www.w3.org/TR/2001/REC-SVG-20010904/DTD/svg10.dtd">
<svg version="1.0" xmlns="http://www.w3.org/2000/svg"
 width="400.000000pt" height="400.000000pt" viewBox="0 0 400.000000 400.000000"
 preserveAspectRatio="xMidYMid meet">
<metadata>
Created by potrace 1.11, written by Peter Selinger 2001-2013
</metadata>
<g transform="translate(0.000000,400.000000) scale(0.100000,-0.100000)"
fill="#000000" stroke="none">
<path d="M570 2852 c0 -311 5 -596 11 -658 56 -579 253 -1082 589 -1504 205
-257 511 -513 771 -645 l67 -34 118 81 c263 178 537 427 711 645 330 413 524
882 573 1388 5 55 10 364 10 688 l0 587 -1425 0 -1425 0 0 -548z m1955 81 c94
-4 123 -8 133 -21 13 -18 17 -384 6 -623 l-7 -134 -139 2 c-76 2 -148 7 -158
13 -19 10 -20 23 -20 298 0 158 3 331 7 385 l6 99 26 -7 c14 -4 80 -9 146 -12z
m519 -16 c0 -15 -1 -186 -2 -379 -1 -196 -6 -360 -12 -368 -7 -11 -44 -16
-172 -20 -90 -4 -163 -6 -163 -6 -1 1 1 171 5 378 4 288 8 380 18 390 9 9 58
14 152 18 76 3 142 8 146 13 14 14 29 1 28 -26z m-1865 8 c89 -1 106 -4 117
-20 16 -21 19 -358 8 -620 l-7 -140 -136 3 c-99 2 -142 7 -159 18 l-23 15 2
342 c1 188 4 359 7 381 l4 38 42 -8 c22 -4 88 -8 145 -9z m505 -7 c0 -10 -1
-179 -2 -375 -2 -205 -6 -364 -12 -373 -7 -12 -41 -16 -157 -21 -81 -3 -154
-7 -162 -10 -13 -3 -14 47 -12 356 2 362 5 404 25 417 6 4 58 8 116 9 58 1
119 5 135 9 45 12 70 7 69 -12z m571 -15 c-13 -45 -18 -813 -6 -827 8 -9 63
-15 182 -19 94 -4 175 -9 180 -13 6 -4 6 -11 -2 -20 -9 -11 -49 -14 -191 -14
-104 0 -187 4 -199 10 -16 9 -19 22 -19 75 0 74 -14 95 -65 95 -28 0 -65 20
-65 35 0 14 37 35 63 35 18 0 38 4 45 9 19 11 30 385 12 406 -7 8 -35 18 -62
21 -55 7 -73 28 -43 50 10 8 33 14 51 14 48 0 64 22 64 87 0 41 5 59 18 69 30
23 45 17 37 -13z m-1361 -5 c-4 -13 -9 -203 -11 -424 -3 -331 -2 -403 10 -412
8 -7 75 -12 183 -14 151 -3 169 -5 172 -20 3 -17 -11 -18 -186 -18 -105 0
-197 3 -206 6 -12 5 -16 21 -16 74 0 76 -13 96 -60 92 -15 -1 -38 6 -51 17
-22 18 -23 21 -8 36 9 9 35 19 58 22 23 3 44 10 47 14 3 5 7 94 10 198 6 189
6 189 -17 205 -13 9 -41 16 -62 16 -71 0 -59 52 15 64 60 10 68 20 68 85 0 60
11 81 43 81 16 0 18 -4 11 -22z m927 12 c16 -9 19 -22 19 -80 0 -49 4 -70 13
-71 71 -7 107 -21 107 -42 0 -24 -24 -37 -71 -37 -33 0 -49 -5 -53 -16 -12
-31 -7 -379 6 -392 7 -7 27 -12 45 -12 42 0 80 -34 62 -56 -6 -8 -29 -14 -54
-14 -23 0 -47 -6 -53 -13 -6 -7 -14 -43 -18 -79 -4 -36 -9 -71 -13 -76 -7 -12
-230 -21 -338 -14 -53 3 -73 8 -73 18 0 11 29 14 148 16 81 1 162 2 181 2 25
1 36 6 42 23 13 35 23 774 11 804 -8 19 -7 30 1 38 13 13 14 13 38 1z m1374
-12 c3 -13 6 -48 7 -78 l3 -55 49 -7 c55 -8 69 -18 64 -44 -2 -15 -14 -20 -53
-22 -30 -2 -55 -9 -62 -18 -8 -11 -12 -76 -13 -199 -1 -202 3 -215 60 -215 43
0 60 -10 60 -36 0 -25 -14 -31 -80 -36 l-35 -3 -10 -77 c-5 -42 -15 -82 -21
-88 -7 -7 -77 -10 -205 -8 -165 3 -194 5 -194 18 0 13 28 15 181 18 179 2 182
3 188 25 11 47 19 773 8 804 -12 36 -8 43 24 43 16 0 25 -7 29 -22z m-1436
-362 c-2 -406 -6 -449 -37 -381 -13 29 -17 736 -5 749 4 4 16 -3 26 -15 16
-20 18 -48 16 -353z m1351 354 c12 -23 13 -691 1 -736 l-7 -28 -17 24 c-15 22
-17 62 -17 386 0 198 3 364 7 367 11 12 22 8 33 -13z m-802 -360 c-3 -336 -5
-371 -20 -387 -17 -16 -18 0 -18 344 0 348 5 413 31 413 7 0 10 -105 7 -370z
m-1359 -10 c-4 -335 -6 -371 -22 -387 -14 -14 -17 -15 -18 -3 -4 118 5 718 11
736 5 13 15 24 21 24 8 0 10 -99 8 -370z m191 -409 c110 -5 135 -9 135 -21 0
-12 -24 -14 -160 -11 -88 1 -164 6 -168 10 -13 13 23 43 42 35 9 -5 77 -10
151 -13z m1478 3 c12 -2 22 -10 22 -18 0 -11 -32 -12 -167 -8 -93 2 -170 6
-172 8 -2 2 1 10 7 17 9 11 42 13 149 10 76 -2 148 -6 161 -9z m470 -22 c5
-15 -354 -17 -363 -3 -11 19 21 24 139 22 67 -1 135 3 151 8 31 9 65 -4 73
-27z m-1376 11 c10 -9 18 -19 18 -22 0 -8 -347 -14 -360 -6 -8 5 -7 12 2 22
10 12 29 14 108 9 52 -4 115 -3 140 2 65 14 72 14 92 -5z m1004 -47 c24 -37
15 -70 -20 -74 -16 -2 -32 2 -37 10 -15 23 -10 66 9 77 25 15 30 14 48 -13z
m-1362 -5 c34 -37 -1 -100 -41 -75 -34 21 -24 94 12 94 6 0 20 -9 29 -19z
m1106 -831 c0 -363 -1 -378 -20 -395 -17 -16 -42 -18 -202 -20 -101 -1 -192
-5 -204 -9 -21 -7 -21 -5 -27 156 -4 131 -2 166 9 177 12 13 16 9 29 -24 9
-21 14 -48 11 -61 -6 -23 -4 -24 44 -24 56 0 61 7 27 39 -15 13 -29 44 -37 79
-7 31 -27 108 -46 169 -23 77 -34 133 -34 176 0 96 1 97 200 95 134 -2 171 1
195 14 56 30 55 39 55 -372z m-875 370 c4 -6 76 -10 182 -10 215 0 213 1 213
-104 0 -96 -80 -402 -111 -428 -18 -15 -19 -19 -6 -24 9 -3 26 -4 39 -2 20 3
23 9 24 46 0 44 23 80 43 68 13 -9 15 -304 2 -325 -12 -18 -374 -12 -408 7
l-23 13 0 384 c0 374 1 385 19 385 11 0 23 -4 26 -10z m1035 -88 c5 -80 14
-92 66 -92 16 0 39 -6 49 -14 29 -21 3 -46 -46 -46 -67 0 -69 -7 -69 -224 0
-144 3 -196 13 -204 7 -6 32 -12 56 -14 85 -6 76 -68 -10 -68 -49 0 -60 -17
-61 -90 -1 -39 -6 -67 -15 -76 -22 -22 -538 -16 -538 6 0 13 35 16 230 20 127
3 237 9 247 13 9 5 19 19 22 31 10 42 7 785 -3 805 -13 23 -4 33 29 29 24 -3
25 -7 30 -76z m-1160 57 c0 -6 -5 -19 -10 -29 -12 -22 -26 -777 -15 -810 6
-19 14 -20 240 -20 229 0 264 -5 237 -32 -12 -12 -483 -22 -500 -10 -8 5 -16
41 -21 85 -4 42 -10 80 -15 84 -4 4 -31 10 -59 13 -40 4 -53 9 -55 24 -5 25
14 36 63 36 22 0 45 4 52 8 8 5 12 69 14 210 4 229 6 222 -72 222 -47 0 -74
16 -61 36 12 19 50 34 87 34 41 0 55 23 55 90 0 21 3 45 6 54 7 18 54 22 54 5z
m1069 -21 c8 -17 11 -122 9 -398 l-3 -375 -23 35 c-23 35 -23 38 -18 240 3
113 6 276 6 363 0 86 4 157 8 157 5 0 14 -10 21 -22z m-1025 -360 c-6 -353 -7
-374 -26 -393 -20 -20 -20 -18 -13 350 7 356 12 415 35 415 7 0 9 -115 4 -372z
m511 46 c16 -45 9 -57 -31 -52 -27 3 -29 6 -27 42 3 43 21 72 35 58 5 -5 16
-27 23 -48z m-405 -455 c30 -4 117 -8 192 -8 80 -1 139 -5 143 -11 12 -20 -27
-22 -240 -13 l-215 8 16 23 c11 16 21 21 33 16 9 -4 41 -10 71 -15z m884 2
c10 -11 15 -25 11 -30 -8 -14 -451 -15 -460 -2 -12 21 27 26 195 27 102 0 185
5 200 12 34 15 35 15 54 -7z m-475 -55 c7 -8 11 -30 9 -48 -2 -28 -7 -34 -30
-36 -21 -3 -30 2 -39 20 -23 51 27 104 60 64z"/>
<path d="M2410 2694 c0 -3 5 -14 11 -25 14 -27 14 -261 0 -288 -17 -30 -6 -41
41 -41 37 0 40 2 33 23 -4 12 -10 43 -12 70 -7 67 13 61 62 -18 40 -65 61 -83
78 -66 5 5 -5 29 -27 62 -44 66 -45 92 -6 126 25 21 30 32 30 69 0 36 -5 50
-26 69 -24 22 -36 25 -105 25 -44 0 -79 -3 -79 -6z m153 -53 c24 -41 21 -58
-12 -92 -41 -41 -57 -30 -65 43 -7 70 -4 78 32 78 20 0 33 -8 45 -29z"/>
<path d="M2801 2701 c-12 -8 -13 -14 -3 -36 18 -39 16 -256 -3 -281 -26 -34
-18 -44 35 -44 37 0 50 4 50 14 0 8 -4 18 -10 21 -6 4 -10 59 -10 133 0 101 3
132 16 151 9 12 12 26 8 31 -15 13 -68 20 -83 11z"/>
<path d="M1010 2688 c0 -6 8 -20 18 -30 9 -11 37 -83 62 -161 47 -145 66 -172
89 -128 10 17 91 301 91 316 0 3 -13 5 -30 5 -32 0 -35 -6 -21 -43 7 -17 5
-40 -5 -73 -8 -27 -19 -66 -25 -86 -5 -21 -14 -38 -19 -38 -5 0 -23 43 -40 96
-23 74 -28 99 -19 110 22 27 3 44 -51 44 -31 0 -50 -4 -50 -12z"/>
<path d="M1403 2692 c-27 -4 -29 -15 -7 -33 13 -11 15 -32 11 -138 -3 -69 -7
-137 -9 -151 -3 -25 -2 -25 80 -28 91 -3 112 5 112 44 0 34 -15 37 -34 8 -15
-21 -23 -25 -59 -22 l-42 3 -3 74 -3 73 46 -6 45 -7 0 30 c0 32 -8 39 -27 20
-6 -6 -21 -9 -34 -7 -20 2 -25 10 -27 40 -3 40 12 78 31 78 7 0 25 -7 41 -15
35 -19 43 -13 28 20 -11 23 -16 25 -69 23 -32 -1 -68 -4 -80 -6z"/>
<path d="M2317 1369 c-9 -6 -26 -8 -36 -4 -44 14 -91 -34 -91 -91 0 -28 40
-71 109 -116 42 -29 50 -52 31 -89 -17 -31 -58 -24 -94 16 -37 40 -46 37 -46
-16 0 -35 2 -38 28 -38 15 1 39 -2 54 -6 43 -11 74 2 98 40 29 47 20 84 -31
127 -115 97 -115 96 -103 115 17 27 52 28 81 2 20 -20 26 -21 34 -9 5 8 7 24
4 35 -2 11 -5 26 -5 33 0 14 -9 15 -33 1z"/>
<path d="M1640 1365 c-21 -55 -9 -73 25 -39 13 13 31 24 40 24 14 0 16 -17 12
-142 -2 -79 -7 -153 -11 -164 -7 -20 -4 -22 36 -26 54 -6 63 2 46 38 -9 21
-12 66 -10 157 3 133 7 144 44 110 17 -15 20 -15 28 -3 6 8 10 28 10 44 0 25
-3 27 -22 20 -30 -10 -136 -10 -165 0 -19 7 -24 4 -33 -19z"/>
</g>
</svg>
